<svg width="18" height="18" viewBox="0 0 18 18" fill="none" xmlns="http://www.w3.org/2000/svg">
<path d="M9.0149 15.3975C7.2674 15.3975 5.5199 15.12 3.8624 14.565C3.2324 14.3475 2.7524 13.905 2.5424 13.3275C2.3249 12.75 2.3999 12.1125 2.7449 11.5425L3.6074 10.11C3.7874 9.81 3.9524 9.21 3.9524 8.8575V6.69C3.9524 3.9 6.2249 1.6275 9.0149 1.6275C11.8049 1.6275 14.0774 3.9 14.0774 6.69V8.8575C14.0774 9.2025 14.2424 9.81 14.4224 10.1175L15.2774 11.5425C15.5999 12.0825 15.6599 12.735 15.4424 13.3275C15.2249 13.92 14.7524 14.37 14.1599 14.565C12.5099 15.12 10.7624 15.3975 9.0149 15.3975ZM9.0149 2.7525C6.8474 2.7525 5.0774 4.515 5.0774 6.69V8.8575C5.0774 9.405 4.8524 10.215 4.5749 10.6875L3.7124 12.12C3.5474 12.3975 3.5024 12.69 3.5999 12.9375C3.6899 13.1925 3.9149 13.3875 4.2224 13.4925C7.3574 14.5425 10.6799 14.5425 13.8149 13.4925C14.0849 13.4025 14.2949 13.2 14.3924 12.93C14.4899 12.66 14.4674 12.3675 14.3174 12.12L13.4549 10.6875C13.1699 10.2 12.9524 9.3975 12.9524 8.85V6.69C12.9524 4.515 11.1899 2.7525 9.0149 2.7525Z" fill="#363636"/>
<path d="M10.4095 2.95501C10.357 2.95501 10.3045 2.94751 10.252 2.93251C10.0345 2.87251 9.82448 2.82751 9.62197 2.79751C8.98448 2.71501 8.36948 2.76001 7.79198 2.93251C7.58198 3.00001 7.35698 2.93251 7.21448 2.77501C7.07198 2.61751 7.02697 2.39251 7.10947 2.19001C7.41697 1.40251 8.16697 0.88501 9.02197 0.88501C9.87697 0.88501 10.627 1.39501 10.9345 2.19001C11.0095 2.39251 10.972 2.61751 10.8295 2.77501C10.717 2.89501 10.5595 2.95501 10.4095 2.95501Z" fill="#363636"/>
<path d="M9.01562 17.1075C8.27312 17.1075 7.55312 16.8075 7.02812 16.2825C6.50312 15.7575 6.20312 15.0375 6.20312 14.295H7.32812C7.32812 14.7375 7.50812 15.1725 7.82312 15.4875C8.13812 15.8025 8.57313 15.9825 9.01562 15.9825C9.94563 15.9825 10.7031 15.225 10.7031 14.295H11.8281C11.8281 15.8475 10.5681 17.1075 9.01562 17.1075Z" fill="#363636"/>
<g filter="url(#filter0_d_531_6194)">
<circle cx="14" cy="4" r="2" fill="#FF0079"/>
<circle cx="14" cy="4" r="2.25" stroke="white" stroke-width="0.5"/>
</g>
<defs>
<filter id="filter0_d_531_6194" x="10.5" y="0.5" width="7" height="7" filterUnits="userSpaceOnUse" color-interpolation-filters="sRGB">
<feFlood flood-opacity="0" result="BackgroundImageFix"/>
<feColorMatrix in="SourceAlpha" type="matrix" values="0 0 0 0 0 0 0 0 0 0 0 0 0 0 0 0 0 0 127 0" result="hardAlpha"/>
<feOffset/>
<feGaussianBlur stdDeviation="0.5"/>
<feComposite in2="hardAlpha" operator="out"/>
<feColorMatrix type="matrix" values="0 0 0 0 1 0 0 0 0 0 0 0 0 0 0.47451 0 0 0 1 0"/>
<feBlend mode="normal" in2="BackgroundImageFix" result="effect1_dropShadow_531_6194"/>
<feBlend mode="normal" in="SourceGraphic" in2="effect1_dropShadow_531_6194" result="shape"/>
</filter>
</defs>
</svg>
