<svg width="225" height="71" viewBox="0 0 225 71" fill="none" xmlns="http://www.w3.org/2000/svg">
<g clipPath="url(#clip0_33_2432)">
<path d="M42.8335 9.37448C27.1332 -8.28765 3.26119 1.58908 0.229201 19.3496C-1.9426 31.9996 9.60953 43.8235 20.1415 53.0008C20.17 52.9973 20.1948 52.9938 20.2233 52.9903C-10.7969 19.7363 21.8299 -3.15597 38.0882 13.1951C45.7091 20.7345 40.2422 20.7028 46.8323 13.3463C59.0171 -0.569036 79.0005 6.51339 81.6095 22.6325C82.3666 4.93522 59.0811 -6.42829 42.8335 9.37448Z" fill="#29D9AF"/>
<path d="M167.739 57.8302L191.217 56.6984C191.647 56.6984 192.603 55.2327 193.196 54.3188C193.346 54.0904 193.474 53.8935 193.598 53.7178V53.7143C193.829 53.3979 194.138 53.3347 194.519 53.5034L194.526 53.5069C194.931 53.6932 195.052 54.7266 195.183 55.8689C195.237 56.3118 195.29 56.7792 195.358 57.2432L195.571 56.839L195.805 56.3996C196.175 55.7142 196.435 55.3838 196.957 55.4471H196.961C197.476 55.5104 197.608 55.8829 197.735 56.607C197.778 56.8565 197.821 57.1167 197.863 57.3908C198.13 55.5947 198.478 53.0465 198.823 50.4947C199.474 45.7039 200.128 40.9097 200.533 40.5336L200.536 40.5301C200.824 40.2665 201.137 40.2418 201.475 40.4738L201.478 40.4773H201.482C201.955 40.857 202.179 46.7338 202.413 52.8531C202.53 55.9216 202.651 59.0498 202.754 61.4962C202.818 60.7159 202.882 59.9074 202.943 59.1271C203.142 56.5965 203.316 54.3575 203.565 54.0587H203.568C203.853 53.7213 204.187 53.6791 204.567 53.8795C204.908 54.0622 205.04 54.5789 205.196 55.194C205.371 55.8724 205.591 56.7335 205.673 56.7476C206.433 56.9093 225.077 57.7634 225.077 57.7634C225.023 57.7634 206.238 57.9391 205.335 57.7493C204.916 57.6579 204.628 57.3205 204.414 56.8847C204.361 57.5701 204.297 58.3609 204.233 59.1869C203.974 62.5155 203.671 66.3572 203.185 66.8106C202.879 67.0953 202.548 67.1234 202.189 66.8774C201.638 66.5013 201.375 59.5454 201.119 52.8777C201.016 50.1537 200.913 47.4789 200.828 45.3841C200.608 46.9376 200.359 48.7689 200.11 50.5966C199.467 55.3276 198.823 60.048 198.439 60.4874L198.436 60.4944C198.162 60.7826 197.846 60.8213 197.49 60.5999C197 60.2941 196.783 58.8776 196.598 57.6614L196.587 57.5841L196.538 57.6755C196.019 58.6456 195.638 59.1377 195.102 59.1201C194.487 59.1025 194.248 58.5577 194.089 57.4541C194.028 57.0464 193.964 56.491 193.904 55.9603C193.886 55.7986 193.879 55.6474 193.879 55.5033C193.161 56.5508 192.205 57.7282 191.224 57.7282L167.739 57.8302Z" fill="#0DE0FE"/>
<path d="M128.877 48.4827C128.981 48.4053 129.109 48.3702 129.265 48.3702C129.421 48.3702 129.574 48.4124 129.731 48.4967L129.915 48.2085C129.738 48.0995 129.517 48.0433 129.258 48.0328C128.984 48.0328 128.75 48.1066 128.558 48.2542C128.366 48.4018 128.27 48.6022 128.27 48.8552V49.1224H127.879V49.4211H128.27V51.4808H128.721V49.4211H129.599V49.1224H128.721V48.806C128.721 48.6654 128.774 48.56 128.877 48.4827Z" fill="#026985"/>
<path d="M132.429 49.3808C132.137 49.1523 131.764 49.0398 131.313 49.0398C130.854 49.0398 130.481 49.1523 130.193 49.3808C129.901 49.6057 129.759 49.901 129.759 50.263C129.759 50.625 129.905 50.9203 130.193 51.1523C130.484 51.3842 130.858 51.4967 131.313 51.4967C131.764 51.4967 132.137 51.3807 132.429 51.1523C132.72 50.9238 132.866 50.625 132.866 50.263C132.866 49.9045 132.72 49.6092 132.429 49.3808ZM132.098 50.9238C131.892 51.0925 131.629 51.1769 131.309 51.1769C130.986 51.1769 130.719 51.0925 130.513 50.9238C130.307 50.7551 130.204 50.5372 130.204 50.27C130.204 50.0064 130.307 49.7885 130.513 49.6198C130.719 49.4511 130.982 49.3667 131.309 49.3667C131.629 49.3667 131.892 49.4511 132.098 49.6198C132.304 49.7885 132.407 50.0064 132.407 50.27C132.407 50.5372 132.304 50.7551 132.098 50.9238Z" fill="#026985"/>
<path d="M134.109 49.5873V49.0496H133.657V51.4783H134.109V50.1849C134.137 49.9423 134.248 49.749 134.439 49.6049C134.635 49.4608 134.891 49.3905 135.211 49.394V49.0285C134.685 49.039 134.319 49.2253 134.109 49.5873Z" fill="#026985"/>
<path d="M142.498 49.033C141.876 49.04 141.471 49.2509 141.286 49.6692C141.222 49.4653 141.094 49.3107 140.902 49.1982C140.71 49.0893 140.472 49.033 140.184 49.033C139.605 49.04 139.214 49.2298 139.011 49.5989V49.0506H138.567V51.4793H139.011V50.2843C139.011 50.0207 139.1 49.8063 139.281 49.6411C139.462 49.4794 139.708 49.3915 140.017 49.3845C140.287 49.3845 140.497 49.4442 140.642 49.5673C140.792 49.6903 140.866 49.859 140.866 50.0769V51.4793H141.332V50.2843C141.332 50.0207 141.421 49.8063 141.595 49.6411C141.769 49.4794 142.018 49.3915 142.331 49.3845C142.597 49.3845 142.804 49.4442 142.953 49.5673C143.102 49.6903 143.18 49.859 143.18 50.0769V51.4793H143.632V49.9785C143.632 49.6833 143.532 49.4548 143.33 49.2861C143.131 49.1174 142.853 49.033 142.498 49.033Z" fill="#026985"/>
<path d="M146.945 49.4019C146.699 49.1559 146.333 49.0364 145.85 49.0399C145.402 49.0399 145.036 49.1524 144.755 49.3808C144.471 49.6093 144.332 49.9046 144.332 50.2666C144.332 50.6286 144.474 50.9239 144.755 51.1523C145.039 51.3808 145.402 51.4933 145.85 51.4933C146.369 51.4933 146.785 51.3562 147.09 51.0856L146.838 50.8747C146.596 51.0785 146.28 51.1805 145.892 51.1805C145.59 51.1805 145.338 51.1102 145.139 50.9696C144.936 50.829 144.815 50.6392 144.776 50.4002H147.282C147.304 49.9784 147.193 49.6445 146.945 49.4019ZM144.776 50.1119C144.808 49.88 144.922 49.6937 145.118 49.5566C145.313 49.4195 145.558 49.3492 145.85 49.3492C146.148 49.3492 146.387 49.4195 146.571 49.5566C146.756 49.6937 146.856 49.88 146.87 50.1119H144.776Z" fill="#026985"/>
<path d="M150.429 49.5691C150.316 49.3969 150.156 49.2598 149.946 49.1685C149.74 49.0736 149.498 49.0279 149.231 49.0279C148.798 49.0279 148.442 49.1438 148.169 49.3723C147.895 49.6043 147.756 49.8995 147.756 50.2651C147.756 50.6306 147.895 50.9259 148.169 51.1579C148.442 51.3898 148.798 51.5023 149.239 51.5023C149.509 51.5023 149.747 51.4566 149.949 51.3617C150.156 51.2668 150.316 51.1333 150.429 50.961V51.4812H150.881V48.0578H150.429V49.5691ZM150.12 50.9224C149.914 51.0911 149.647 51.1754 149.324 51.1754C149 51.1754 148.734 51.0911 148.524 50.9224C148.318 50.7537 148.211 50.5357 148.211 50.2721C148.211 50.005 148.314 49.7835 148.524 49.6113C148.73 49.4391 148.997 49.3547 149.324 49.3547C149.647 49.3547 149.914 49.4426 150.12 49.6113C150.326 49.7835 150.433 50.005 150.433 50.2721C150.429 50.5357 150.326 50.7537 150.12 50.9224Z" fill="#026985"/>
<path d="M152.236 48.0964C152.151 48.0964 152.08 48.121 152.023 48.1667C151.97 48.2124 151.941 48.2721 151.941 48.346C151.941 48.4198 151.97 48.4795 152.023 48.5252C152.076 48.5709 152.148 48.5955 152.236 48.5955C152.322 48.5955 152.393 48.5709 152.45 48.5252C152.503 48.4795 152.531 48.4198 152.531 48.346C152.531 48.2721 152.503 48.2124 152.45 48.1667C152.393 48.121 152.325 48.0964 152.236 48.0964Z" fill="#026985"/>
<path d="M152.463 49.0489H152.019V51.4777H152.463V49.0489Z" fill="#026985"/>
<path d="M154.799 51.1689C154.479 51.1689 154.216 51.0845 154.013 50.9158C153.81 50.7471 153.707 50.5292 153.707 50.2656C153.707 50.0019 153.807 49.784 154.013 49.6188C154.216 49.4536 154.479 49.3693 154.799 49.3693C155.158 49.3693 155.467 49.4642 155.716 49.6505L155.961 49.3939C155.659 49.1513 155.268 49.0318 154.784 49.0354C154.337 49.0354 153.97 49.1478 153.69 49.3763C153.405 49.6048 153.267 49.9 153.267 50.262C153.267 50.6241 153.409 50.9193 153.69 51.1478C153.97 51.3762 154.337 51.4887 154.784 51.4887C155.31 51.4887 155.719 51.3481 156.011 51.0705L155.751 50.849C155.52 51.0634 155.204 51.1689 154.799 51.1689Z" fill="#026985"/>
<path d="M158.868 49.2567C158.661 49.1091 158.373 49.0353 157.997 49.0353C157.751 49.0353 157.535 49.0634 157.35 49.1126C157.165 49.1653 156.962 49.2462 156.742 49.3586L156.934 49.6258C157.268 49.4395 157.592 49.3481 157.908 49.3481C158.178 49.3481 158.381 49.3973 158.523 49.4957C158.661 49.5941 158.733 49.7347 158.733 49.9105V50.0581H157.727C157.371 50.0616 157.09 50.1249 156.888 50.2479C156.685 50.3709 156.582 50.5396 156.582 50.754C156.582 50.9684 156.678 51.1442 156.87 51.2883C157.062 51.4289 157.314 51.4992 157.623 51.4992C158.125 51.4992 158.501 51.3691 158.747 51.109V51.4781H159.184L159.177 49.8753C159.177 49.6117 159.074 49.4043 158.868 49.2567ZM158.74 50.6416C158.679 50.8068 158.558 50.9403 158.373 51.0387C158.189 51.1372 157.965 51.1864 157.705 51.1864C157.492 51.1864 157.321 51.1442 157.193 51.0634C157.069 50.9825 157.005 50.8735 157.005 50.74C157.005 50.4799 157.264 50.3498 157.78 50.3498H158.74V50.6416Z" fill="#026985"/>
<path d="M160.677 48.0555H160.225V51.479H160.677V48.0555Z" fill="#026985"/>
<path d="M166.228 49.0316C165.634 49.0386 165.236 49.2249 165.03 49.5904V48.0509H164.579V51.4744H165.03V50.2794C165.03 50.0157 165.122 49.8013 165.307 49.6361C165.492 49.4745 165.748 49.3901 166.071 49.3866C166.342 49.3866 166.551 49.4463 166.704 49.5694C166.857 49.6924 166.935 49.8576 166.935 50.072V51.4744H167.394V49.9736C167.394 49.6783 167.291 49.4499 167.085 49.2811C166.878 49.1159 166.594 49.0316 166.228 49.0316Z" fill="#026985"/>
<path d="M170.716 49.4019C170.471 49.1559 170.104 49.0364 169.621 49.0399C169.173 49.0399 168.807 49.1524 168.526 49.3808C168.242 49.6093 168.103 49.9046 168.103 50.2666C168.103 50.6286 168.245 50.9239 168.526 51.1523C168.811 51.3808 169.173 51.4933 169.621 51.4933C170.14 51.4933 170.556 51.3562 170.862 51.0856L170.609 50.8747C170.367 51.0785 170.051 51.1805 169.664 51.1805C169.362 51.1805 169.109 51.1102 168.91 50.9696C168.708 50.829 168.587 50.6392 168.548 50.4002H171.054C171.075 49.9784 170.965 49.6445 170.716 49.4019ZM168.544 50.1119C168.576 49.88 168.69 49.6937 168.885 49.5566C169.081 49.4195 169.326 49.3492 169.617 49.3492C169.916 49.3492 170.154 49.4195 170.339 49.5566C170.524 49.6937 170.623 49.88 170.638 50.1119H168.544Z" fill="#026985"/>
<path d="M173.859 49.2567C173.653 49.1091 173.365 49.0353 172.988 49.0353C172.743 49.0353 172.526 49.0634 172.341 49.1126C172.156 49.1653 171.954 49.2462 171.733 49.3586L171.925 49.6258C172.26 49.4395 172.583 49.3481 172.899 49.3481C173.169 49.3481 173.372 49.3973 173.514 49.4957C173.653 49.5941 173.724 49.7347 173.724 49.9105V50.0581H172.718C172.363 50.0616 172.082 50.1249 171.879 50.2479C171.677 50.3709 171.573 50.5396 171.573 50.754C171.573 50.9684 171.669 51.1442 171.861 51.2883C172.053 51.4289 172.306 51.4992 172.615 51.4992C173.116 51.4992 173.493 51.3691 173.738 51.109V51.4781H174.175L174.168 49.8753C174.168 49.6117 174.065 49.4043 173.859 49.2567ZM173.728 50.6416C173.667 50.8068 173.546 50.9403 173.361 51.0387C173.177 51.1372 172.953 51.1864 172.693 51.1864C172.48 51.1864 172.309 51.1442 172.181 51.0634C172.057 50.9825 171.993 50.8735 171.993 50.74C171.993 50.4799 172.252 50.3498 172.768 50.3498H173.728V50.6416Z" fill="#026985"/>
<path d="M175.668 48.0555H175.217V51.479H175.668V48.0555Z" fill="#026985"/>
<path d="M177.774 51.1471C177.501 51.1471 177.362 51.01 177.362 50.7394V49.4178H178.336V49.1191L177.362 49.1261V48.4829H176.918V49.1261H176.473V49.4213H176.918V50.8062C176.918 51.0382 176.989 51.2104 177.131 51.3264C177.273 51.4424 177.462 51.4986 177.7 51.4986C177.941 51.4951 178.172 51.4318 178.393 51.3123L178.261 51.0171C178.101 51.1049 177.938 51.1471 177.774 51.1471Z" fill="#026985"/>
<path d="M180.755 49.0316C180.161 49.0386 179.763 49.2249 179.557 49.5904V48.0509H179.106V51.4744H179.557V50.2794C179.557 50.0157 179.65 49.8013 179.834 49.6361C180.019 49.4745 180.275 49.3901 180.599 49.3866C180.869 49.3866 181.078 49.4463 181.231 49.5694C181.384 49.6924 181.462 49.8576 181.462 50.072V51.4744H181.921V49.9736C181.921 49.6783 181.818 49.4499 181.612 49.2811C181.405 49.1159 181.121 49.0316 180.755 49.0316Z" fill="#026985"/>
<path d="M186.904 51.1689C186.584 51.1689 186.321 51.0845 186.118 50.9158C185.916 50.7471 185.813 50.5292 185.813 50.2656C185.813 50.0019 185.912 49.784 186.118 49.6188C186.321 49.4536 186.584 49.3693 186.904 49.3693C187.263 49.3693 187.572 49.4642 187.821 49.6505L188.066 49.3939C187.764 49.1513 187.373 49.0318 186.89 49.0354C186.442 49.0354 186.076 49.1478 185.795 49.3763C185.51 49.6048 185.372 49.9 185.372 50.262C185.372 50.6241 185.514 50.9193 185.795 51.1478C186.079 51.3762 186.442 51.4887 186.89 51.4887C187.416 51.4887 187.824 51.3481 188.116 51.0705L187.856 50.849C187.629 51.0634 187.309 51.1689 186.904 51.1689Z" fill="#026985"/>
<path d="M190.973 49.2567C190.766 49.1091 190.478 49.0353 190.102 49.0353C189.856 49.0353 189.64 49.0634 189.455 49.1126C189.27 49.1653 189.067 49.2462 188.847 49.3586L189.039 49.6258C189.373 49.4395 189.696 49.3481 190.013 49.3481C190.283 49.3481 190.486 49.3973 190.628 49.4957C190.766 49.5941 190.837 49.7347 190.837 49.9105V50.0581H189.832C189.476 50.0616 189.195 50.1249 188.993 50.2479C188.79 50.3709 188.687 50.5396 188.687 50.754C188.687 50.9684 188.783 51.1442 188.975 51.2883C189.167 51.4289 189.419 51.4992 189.728 51.4992C190.23 51.4992 190.606 51.3691 190.852 51.109V51.4781H191.289L191.282 49.8753C191.278 49.6117 191.175 49.4043 190.973 49.2567ZM190.841 50.6416C190.781 50.8068 190.66 50.9403 190.475 51.0387C190.29 51.1372 190.066 51.1864 189.807 51.1864C189.593 51.1864 189.423 51.1442 189.295 51.0634C189.17 50.9825 189.106 50.8735 189.106 50.74C189.106 50.4799 189.366 50.3498 189.881 50.3498H190.841V50.6416Z" fill="#026985"/>
<path d="M192.754 49.5873V49.0496H192.303V51.4783H192.754V50.1849C192.783 49.9423 192.893 49.749 193.085 49.6049C193.28 49.4608 193.536 49.3905 193.856 49.394V49.0285C193.33 49.039 192.964 49.2253 192.754 49.5873Z" fill="#026985"/>
<path d="M196.773 49.4019C196.528 49.1559 196.162 49.0364 195.679 49.0399C195.231 49.0399 194.865 49.1524 194.584 49.3808C194.3 49.6093 194.161 49.9046 194.161 50.2666C194.161 50.6286 194.303 50.9239 194.584 51.1523C194.865 51.3808 195.231 51.4933 195.679 51.4933C196.198 51.4933 196.613 51.3562 196.919 51.0856L196.667 50.8747C196.425 51.0785 196.109 51.1805 195.721 51.1805C195.419 51.1805 195.167 51.1102 194.968 50.9696C194.765 50.829 194.644 50.6392 194.605 50.4002H197.111C197.132 49.9784 197.019 49.6445 196.773 49.4019ZM194.602 50.1119C194.634 49.88 194.747 49.6937 194.943 49.5566C195.138 49.4195 195.384 49.3492 195.675 49.3492C195.974 49.3492 196.212 49.4195 196.397 49.5566C196.582 49.6937 196.681 49.88 196.695 50.1119H194.602Z" fill="#026985"/>
<path d="M77.346 26.7891V26.6977H73.4929L67.2405 33.5763V26.6977H64.1375V42.9645H67.2405V35.7625L74.1256 42.9645H77.9574V42.7782L70.0379 34.5745L77.346 26.7891Z" fill="#026985"/>
<path d="M90.1541 36.0406C90.1541 38.8279 88.6968 40.5256 86.134 40.5256C83.5712 40.5256 81.8792 38.9685 81.8792 36.0406V26.7228H78.801V36.0406C78.801 40.9438 82.16 43.3164 86.1091 43.3164C90.2465 43.3164 93.2287 40.8525 93.2287 36.0406V26.7228H90.1505V36.0406H90.1541Z" fill="#026985"/>
<path d="M110.037 32.0914C110.037 29.2795 107.993 26.7242 104.115 26.6996C101.506 26.6996 98.8971 26.675 96.2881 26.675V42.9664H99.3912V37.5289H102.377L107.172 42.9664H110.862V42.759L105.878 37.2055C109.006 36.5764 110.037 34.3233 110.037 32.0914ZM99.3912 34.7627V29.5572H104.115C106.067 29.5572 106.934 30.8577 106.934 32.1582C106.934 33.4587 106.088 34.7627 104.115 34.7627H99.3912Z" fill="#026985"/>
<path d="M118.379 26.6977C116.357 26.6977 113.936 26.6977 111.917 26.6977V42.9645C113.94 42.9645 116.36 42.9645 118.379 42.9645C124.138 42.9645 126.676 38.8029 126.604 34.6905C126.533 30.673 124.02 26.6977 118.379 26.6977ZM118.379 40.012H114.995V29.601H118.379C121.952 29.601 123.455 32.1352 123.526 34.6659C123.597 37.3161 122.115 40.012 118.379 40.012Z" fill="#026985"/>
<path d="M131.986 26.6977H128.908V42.9645H131.986V26.6977Z" fill="#026985"/>
<path d="M148.489 38.2025C148.489 34.3221 145.294 33.4399 141.864 33.0216C139.891 32.7896 138.196 32.3925 138.196 30.976C138.196 29.7669 139.301 28.8143 141.604 28.8143C143.389 28.8143 144.942 29.6966 145.504 30.628L147.97 29.3732C146.726 26.8636 144.071 26.1431 141.508 26.1431C138.476 26.1677 135.139 27.5385 135.139 30.8846C135.139 34.533 138.242 35.4152 141.601 35.8124C143.787 36.0444 145.408 36.6736 145.408 38.206C145.408 39.9705 143.574 40.6453 141.626 40.6453C139.628 40.6453 137.726 39.8545 136.998 38.0654L134.414 39.3905C135.636 42.3641 138.22 43.3869 141.583 43.3869C145.244 43.3834 148.489 41.8263 148.489 38.2025Z" fill="#026985"/>
<path d="M149.92 29.485H155.138V42.9645H158.241V29.485H163.459V26.6977C158.689 26.6977 154.668 26.6977 149.923 26.6977V29.485H149.92Z" fill="#026985"/>
<path d="M174.413 26.6977H171.029L163.65 42.9645H167.009L168.42 39.896H177.022L178.408 42.9645H181.792L174.413 26.6977ZM169.664 37.0384L172.721 30.1142L175.774 37.0384H169.664Z" fill="#026985"/>
<path d="M194.007 26.675V36.7837L185.948 26.6996H183.432V42.9664H186.535V31.9965L195.183 42.991V42.9664H197.11V26.675H194.007Z" fill="#026985"/>
<path d="M32.5651 26.6909C32.4514 26.6909 32.327 26.6909 32.2132 26.6909V29.5977H32.5651C36.1374 29.5977 37.6445 32.1319 37.712 34.6661C37.7831 37.3163 36.3009 40.0122 32.5651 40.0122H29.1812V32.4834H26.103V42.9647C28.1255 42.9647 30.5462 42.9647 32.5687 42.9647C38.327 42.9647 40.8684 38.8031 40.7973 34.6872C40.7227 30.6662 38.2061 26.6909 32.5651 26.6909Z" fill="#026985"/>
<path d="M56.6082 32.0869C56.6082 29.275 54.5644 26.7162 50.6829 26.6951C48.0739 26.6951 45.4649 26.6705 42.8523 26.6705V42.9653H45.9554V37.5243H48.9412L53.7362 42.9653H57.4258V42.7579L52.4423 37.201C55.5703 36.5718 56.6082 34.3188 56.6082 32.0869ZM45.9554 34.7581V29.5491H50.6829C52.6343 29.5491 53.5051 30.8496 53.5051 32.1536C53.5051 33.4541 52.6592 34.7581 50.6829 34.7581H45.9554Z" fill="#026985"/>
<path d="M26.098 31.8584H29.1762V29.5913H31.5542V26.6915H29.1762V24.4244H26.098V26.6915H23.6667V29.5913H26.098V31.8584Z" fill="#026985"/>
</g>
<defs>
<clipPath id="clip0_33_2432">
<rect width="225" height="71" fill="white"/>
</clipPath>
</defs>
</svg>
